<svg xmlns="http://www.w3.org/2000/svg" viewBox="0 0 150 34.64"><defs><style>.cls-1{fill:#fff;}.cls-2{fill:#cf2e2e;}</style></defs><title>Asset 1</title><g id="Layer_2" data-name="Layer 2"><g id="Layer_1-2" data-name="Layer 1"><path class="cls-1" d="M54.78,15.61v-.06a4.24,4.24,0,0,0,2.81-3.93,4,4,0,0,0-1.47-3.33C55,7.39,53.34,7,51,7a31.38,31.38,0,0,0-4.8.32V23.1h3.58V16.83h1.09c1.47,0,2.14.58,2.59,2.56a18.36,18.36,0,0,0,1.12,3.71h3.68c-.32-.64-.8-2.72-1.31-4.51C56.51,17.11,55.9,16.06,54.78,15.61Zm-3.61-1.38H49.76V9.82a7.43,7.43,0,0,1,1.63-.13c1.66,0,2.65.77,2.65,2.24S53,14.24,51.17,14.24Z"/><path class="cls-1" d="M69.6,12.69l1.06-1.6-1.25-.86-1.12,1.63a6,6,0,0,0-2.78-.61,5.75,5.75,0,0,0-6,6.08,5.74,5.74,0,0,0,2,4.61l-1.06,1.54,1.18,1,1.15-1.7a6,6,0,0,0,2.75.61,5.79,5.79,0,0,0,6-6.08A5.87,5.87,0,0,0,69.6,12.69Zm-6.27,6.46a4,4,0,0,1-.42-1.85c0-1.63.74-3.49,2.59-3.49a2.11,2.11,0,0,1,1.28.42l-3.42,5Zm2.17,1.6a1.66,1.66,0,0,1-1.22-.42l3.39-4.83.06,0a4.37,4.37,0,0,1,.35,1.79C68.1,19.38,67.1,20.75,65.5,20.75Z"/><path class="cls-1" d="M84.95,6.3H81.33v6.27h0a3.52,3.52,0,0,0-3-1.31c-2.78,0-5.18,2.24-5.18,6.14,0,3.61,2.21,5.95,5,5.95a4,4,0,0,0,3.61-2h0l.16,1.7H85c-.06-.77-.1-2.14-.1-3.45ZM81.36,18a3.3,3.3,0,0,1-.1.83,2.09,2.09,0,0,1-2.08,1.73c-1.5,0-2.46-1.25-2.46-3.2S77.59,14,79.22,14a2.17,2.17,0,0,1,2.11,1.76c0,.19,0,.45,0,.64Z"/><path class="cls-1" d="M93,11.23c-4,0-5.85,3.23-5.85,6.17,0,3.61,2.24,5.92,6.17,5.92a11.26,11.26,0,0,0,4.19-.74l-.48-2.43a9.89,9.89,0,0,1-3.2.48c-1.66,0-3.13-.7-3.26-2.21l7.45,0A7.12,7.12,0,0,0,98.19,17C98.19,14.14,96.78,11.23,93,11.23ZM90.58,16a2.41,2.41,0,0,1,2.24-2.33,2.09,2.09,0,0,1,2,2.33Z"/><path class="cls-1" d="M118,7.16H113.6L110,12.47c-.38.58-.74,1.15-1.09,1.76h-.06V7.16h-3.61v16h3.58V17.91l1.38-1.7,3.9,6.88h4.22l-5.57-9.15Z"/><path class="cls-1" d="M124.79,11.26a5.78,5.78,0,0,0-6.17,6.14,5.66,5.66,0,0,0,6,5.95,5.79,5.79,0,0,0,6.11-6.17A5.62,5.62,0,0,0,124.79,11.26Zm-.1,9.53c-1.57,0-2.37-1.5-2.37-3.49,0-1.73.64-3.49,2.37-3.49s2.3,1.76,2.3,3.49C127,19.38,126.1,20.79,124.7,20.79Z"/><path class="cls-1" d="M136.19,13.69h-.1L136,11.55h-3.1c.06,1,.1,2.11.1,3.81l0,7.77h3.58V17.24a5.79,5.79,0,0,1,.06-.8,2.31,2.31,0,0,1,2.46-1.82,7.43,7.43,0,0,1,1,.1V11.32a5.67,5.67,0,0,0-.77,0A3.38,3.38,0,0,0,136.19,13.69Z"/><path class="cls-1" d="M146.87,16.06c-1.41-.45-1.86-.77-1.86-1.31s.51-1,1.38-1a5.53,5.53,0,0,1,2.49.67l.64-2.49a7.78,7.78,0,0,0-3.26-.67c-2.88,0-4.7,1.63-4.7,3.77,0,1.38.9,2.69,3.29,3.49,1.34.42,1.7.7,1.7,1.31s-.45,1-1.54,1a6.94,6.94,0,0,1-3.1-.86l-.67,2.62a8.1,8.1,0,0,0,3.74.83c3.33,0,5-1.63,5-3.77C150,17.91,149.08,16.82,146.87,16.06Z"/><polygon class="cls-2" points="34.64 11.55 23.1 11.55 23.1 0 11.55 0 11.55 11.55 0 11.55 0 23.1 11.55 23.1 11.55 34.64 23.1 34.64 23.1 23.1 34.64 23.1 34.64 11.55"/></g></g></svg>