<?xml version="1.0" encoding="utf-8"?>
<!-- Generator: Adobe Illustrator 21.1.0, SVG Export Plug-In . SVG Version: 6.00 Build 0)  -->
<svg version="1.1" id="Layer_1" xmlns="http://www.w3.org/2000/svg" xmlns:xlink="http://www.w3.org/1999/xlink" x="0px" y="0px"
	 viewBox="0 0 150 35" style="enable-background:new 0 0 150 35;" xml:space="preserve">
<style type="text/css">
	.st0{fill:#FFFFFF;}
	.st1{fill:#CF2E2E;}
</style>
<title>rodekors</title>
<desc>Created using Figma</desc>
<g id="Group">
	<g id="Vector">
		<g transform="translate(1877.18 2707.04)">
			<path id="path0_fill" class="st0" d="M46.2,7.4C47.3,7.2,49.1,7,51,7c2.4,0,4,0.4,5.1,1.2c1,0.8,1.5,1.9,1.5,3.3
				c0,2-1.4,3.4-2.8,3.9v0.1c1.1,0.4,1.7,1.5,2.1,3c0.5,1.8,1,3.9,1.3,4.5h-3.7c-0.3-0.4-0.7-1.8-1.1-3.7c-0.4-2-1.1-2.6-2.6-2.6
				h-1.1v6.3h-3.6V7.4z M49.8,14.2h1.4c1.8,0,2.9-0.9,2.9-2.3c0-1.5-1-2.2-2.7-2.2c-0.9,0-1.4,0.1-1.6,0.1V14.2z"/>
		</g>
	</g>
	<g id="Vector_1_">
		<g transform="translate(1890.46 2710.23)">
			<path id="path1_fill" class="st0" d="M65.5,11.3c1,0,2,0.2,2.8,0.6l1.1-1.6l1.2,0.9l-1.1,1.6c1.2,1.1,2,2.6,2,4.6
				c0,4.1-3,6.1-6,6.1c-1,0-2-0.2-2.8-0.6l-1.2,1.7l-1.2-1l1.1-1.5c-1.2-1-2-2.6-2-4.6C59.5,13.7,61.9,11.3,65.5,11.3z M66.8,14.2
				c-0.4-0.3-0.8-0.4-1.3-0.4c-1.9,0-2.6,1.9-2.6,3.5c0,0.6,0.1,1.3,0.4,1.9l0,0L66.8,14.2z M64.3,20.3c0.3,0.3,0.8,0.4,1.2,0.4
				c1.6,0,2.6-1.4,2.6-3.4c0-0.6-0.1-1.2-0.4-1.8l-0.1,0L64.3,20.3z"/>
		</g>
	</g>
	<g id="Vector_2_">
		<g transform="translate(1904.08 2706.3)">
			<path id="path2_fill" class="st0" d="M84.9,6.3v13.3c0,1.3,0,2.7,0.1,3.5h-3.2l-0.2-1.7h0c-0.7,1.3-2.1,2-3.6,2
				c-2.8,0-5-2.3-5-5.9c0-3.9,2.4-6.1,5.2-6.1c1.4,0,2.5,0.5,3,1.3h0V6.3H84.9z M81.4,16.4c0-0.2,0-0.4,0-0.6c-0.2-1-1-1.8-2.1-1.8
				c-1.6,0-2.5,1.5-2.5,3.3c0,2,1,3.2,2.5,3.2c1.1,0,1.9-0.7,2.1-1.7c0.1-0.3,0.1-0.5,0.1-0.8V16.4z"/>
		</g>
	</g>
	<g id="Vector_3_">
		<g transform="translate(1918.19 2711.23)">
			<path id="path3_fill" class="st0" d="M90.6,18.4c0.1,1.5,1.6,2.2,3.3,2.2c1.2,0,2.2-0.2,3.2-0.5l0.5,2.4
				c-1.2,0.5-2.6,0.7-4.2,0.7c-3.9,0-6.2-2.3-6.2-5.9c0-2.9,1.8-6.2,5.9-6.2c3.7,0,5.1,2.9,5.1,5.8c0,0.6-0.1,1.2-0.1,1.4L90.6,18.4
				z M94.9,16c0-0.9-0.4-2.3-2-2.3c-1.5,0-2.1,1.4-2.2,2.3H94.9z"/>
		</g>
	</g>
	<g id="Vector_4_">
		<g transform="translate(1936.22 2707.16)">
			<path id="path4_fill" class="st0" d="M105.3,7.2h3.6v7.1h0.1c0.4-0.6,0.7-1.2,1.1-1.8l3.6-5.3h4.4l-5.3,6.8l5.6,9.1h-4.2
				l-3.9-6.9l-1.4,1.7v5.2h-3.6L105.3,7.2L105.3,7.2z"/>
		</g>
	</g>
	<g id="Vector_5_">
		<g transform="translate(1949.62 2711.26)">
			<path id="path5_fill" class="st0" d="M124.6,23.3c-3.4,0-6-2.2-6-5.9c0-3.7,2.5-6.1,6.2-6.1c3.6,0,5.9,2.4,5.9,5.9
				C130.7,21.4,127.7,23.3,124.6,23.3z M124.7,20.8c1.4,0,2.3-1.4,2.3-3.5c0-1.7-0.7-3.5-2.3-3.5c-1.7,0-2.4,1.8-2.4,3.5
				C122.3,19.3,123.1,20.8,124.7,20.8z"/>
		</g>
	</g>
	<g id="Vector_6_">
		<g transform="translate(1963.86 2711.29)">
			<path id="path6_fill" class="st0" d="M133,15.4c0-1.7,0-2.8-0.1-3.8h3.1l0.1,2.1h0.1c0.6-1.7,2-2.4,3.1-2.4c0.3,0,0.5,0,0.8,0
				v3.4c-0.3,0-0.6-0.1-1-0.1c-1.3,0-2.2,0.7-2.5,1.8c0,0.2-0.1,0.5-0.1,0.8v5.9H133L133,15.4z"/>
		</g>
	</g>
	<g id="Vector_7_">
		<g transform="translate(1972.24 2711.29)">
			<path id="path7_fill" class="st0" d="M141.9,20c0.7,0.4,2,0.9,3.1,0.9c1.1,0,1.5-0.4,1.5-1c0-0.6-0.4-0.9-1.7-1.3
				c-2.4-0.8-3.3-2.1-3.3-3.5c0-2.1,1.8-3.8,4.7-3.8c1.3,0,2.6,0.3,3.3,0.7l-0.6,2.5c-0.5-0.3-1.5-0.7-2.5-0.7c-0.9,0-1.4,0.4-1.4,1
				c0,0.5,0.4,0.9,1.9,1.3c2.2,0.8,3.1,1.9,3.1,3.6c0,2.1-1.7,3.8-5,3.8c-1.5,0-2.9-0.4-3.7-0.8L141.9,20z"/>
		</g>
	</g>
</g>
<g id="Group_1_">
	<g id="Vector_8_">
		<g transform="translate(1842.55 2700)">
			<path id="path8_fill" class="st1" d="M23.1,0H11.6v34.6h11.5V0z"/>
		</g>
	</g>
	<g id="Vector_9_">
		<g transform="translate(1831 2711.55)">
			<path id="path9_fill" class="st1" d="M34.6,11.6H0v11.5h34.6V11.6z"/>
		</g>
	</g>
</g>
</svg>
