<svg width="150" height="35" viewBox="0 0 150 35" version="1.1" xmlns="http://www.w3.org/2000/svg" xmlns:xlink="http://www.w3.org/1999/xlink">
<title>rodekors</title>
<desc>Created using Figma</desc>
<g id="Canvas" transform="translate(-1831 -2700)">
<g id="rodekors">
<g id="Group">
<g id="Vector">
<use xlink:href="#path0_fill" transform="translate(1877.18 2707.04)"/>
</g>
<g id="Vector">
<use xlink:href="#path1_fill" transform="translate(1890.46 2710.23)"/>
</g>
<g id="Vector">
<use xlink:href="#path2_fill" transform="translate(1904.08 2706.3)"/>
</g>
<g id="Vector">
<use xlink:href="#path3_fill" transform="translate(1918.19 2711.23)"/>
</g>
<g id="Vector">
<use xlink:href="#path4_fill" transform="translate(1936.22 2707.16)"/>
</g>
<g id="Vector">
<use xlink:href="#path5_fill" transform="translate(1949.62 2711.26)"/>
</g>
<g id="Vector">
<use xlink:href="#path6_fill" transform="translate(1963.86 2711.29)"/>
</g>
<g id="Vector">
<use xlink:href="#path7_fill" transform="translate(1972.24 2711.29)"/>
</g>
</g>
<g id="Group">
<g id="Vector">
<use xlink:href="#path8_fill" transform="translate(1842.55 2700)" fill="#CF2E2E"/>
</g>
<g id="Vector">
<use xlink:href="#path9_fill" transform="translate(1831 2711.55)" fill="#CF2E2E"/>
</g>
</g>
</g>
</g>
<defs>
<path id="path0_fill" d="M -1.95208e-06 0.319829C 1.15138 0.127932 2.87846 0 4.79744 0C 7.16418 0 8.82729 0.351812 9.9467 1.24733C 10.9062 2.01493 11.4179 3.10234 11.4179 4.57356C 11.4179 6.62047 9.97868 7.99573 8.60341 8.50746L 8.60341 8.57143C 9.72282 9.01919 10.3305 10.0746 10.7463 11.5458C 11.258 13.3369 11.7377 15.4158 12.0576 16.0554L 8.37953 16.0554C 8.12367 15.6077 7.70789 14.2964 7.26013 12.3454C 6.81237 10.3625 6.14073 9.78678 4.66951 9.78678L 3.58209 9.78678L 3.58209 16.0554L -1.95208e-06 16.0554L -1.95208e-06 0.319829ZM 3.58209 7.19616L 4.98934 7.19616C 6.78038 7.19616 7.8678 6.30064 7.8678 4.89339C 7.8678 3.42217 6.87633 2.68657 5.21322 2.65458C 4.34968 2.65458 3.83796 2.71855 3.58209 2.78252L 3.58209 7.19616Z"/>
<path id="path1_fill" d="M 6.04478 1.02345C 7.06823 1.02345 8.02772 1.21535 8.82729 1.63113L 9.9467 0L 11.194 0.86354L 10.1386 2.46269C 11.3539 3.51812 12.0896 5.08529 12.0896 7.03625C 12.0896 11.162 9.05117 13.113 6.04478 13.113C 5.05331 13.113 4.09382 12.9211 3.29424 12.5053L 2.14286 14.2004L 0.959486 13.2409L 2.01492 11.7058C 0.76759 10.6823 -1.95208e-06 9.11514 -1.95208e-06 7.10021C -1.95208e-06 3.45416 2.46269 1.02345 6.04478 1.02345ZM 7.3241 3.99787C 6.97228 3.742 6.5565 3.58209 6.04478 3.58209C 4.18977 3.58209 3.45416 5.4371 3.45416 7.06823C 3.45416 7.70789 3.58209 8.37953 3.86994 8.92324L 3.90192 8.95522L 7.3241 3.99787ZM 4.82942 10.1066C 5.14925 10.4264 5.59702 10.5224 6.04478 10.5224C 7.64392 10.5224 8.63539 9.14712 8.63539 7.10021C 8.63539 6.52452 8.53945 5.85288 8.28358 5.30917L 8.21962 5.27719L 4.82942 10.1066Z"/>
<path id="path2_fill" d="M 11.8657 2.4401e-07L 11.8657 13.3369C 11.8657 14.6482 11.8977 16.0235 11.9616 16.791L 8.76332 16.791L 8.60341 15.0959L 8.57143 15.0959C 7.83582 16.4072 6.42857 17.0469 4.95736 17.0469C 2.20682 17.0469 0 14.7122 0 11.0981C 0 7.19616 2.39872 4.95736 5.18124 4.95736C 6.58848 4.95736 7.70789 5.46908 8.21961 6.26866L 8.2516 6.26866L 8.2516 2.4401e-07L 11.8657 2.4401e-07ZM 8.28358 10.1386C 8.28358 9.9467 8.2516 9.69083 8.2516 9.49893C 8.02772 8.53945 7.26013 7.73987 6.14072 7.73987C 4.50959 7.73987 3.64605 9.21109 3.64605 11.0341C 3.64605 12.9851 4.60555 14.2324 6.10874 14.2324C 7.16418 14.2324 7.96375 13.5288 8.18763 12.5053C 8.2516 12.2495 8.28358 11.9936 8.28358 11.6738L 8.28358 10.1386Z"/>
<path id="path3_fill" d="M 3.42217 7.19616C 3.5501 8.69936 5.02132 9.40299 6.68443 9.40299C 7.89979 9.40299 8.92324 9.24307 9.88273 8.92324L 10.3625 11.3539C 9.1791 11.8337 7.73987 12.0896 6.17271 12.0896C 2.2388 12.0896 1.95208e-06 9.78678 1.95208e-06 6.17271C 1.95208e-06 3.23028 1.82303 -4.88021e-07 5.85288 -4.88021e-07C 9.59488 -4.88021e-07 11.0021 2.91045 11.0021 5.78891C 11.0021 6.42857 10.9382 6.9403 10.8742 7.22815L 3.42217 7.19616ZM 7.67591 4.76546C 7.67591 3.90192 7.29211 2.4307 5.629 2.4307C 4.1258 2.4307 3.48614 3.83795 3.3902 4.76546L 7.67591 4.76546Z"/>
<path id="path4_fill" d="M 0.0319849 -1.22005e-07L 3.61407 -1.22005e-07L 3.61407 7.06823L 3.67804 7.06823C 4.02985 6.46055 4.38166 5.88486 4.76546 5.30917L 8.37953 -1.22005e-07L 12.7932 -1.22005e-07L 7.51599 6.78038L 13.081 15.9275L 8.85928 15.9275L 4.95736 9.05117L 3.58209 10.7463L 3.58209 15.9595L 0 15.9595L 0 -1.22005e-07L 0.0319849 -1.22005e-07Z"/>
<path id="path5_fill" d="M 5.98081 12.0896C 2.59062 12.0896 -1.95208e-06 9.85075 -1.95208e-06 6.14073C -1.95208e-06 2.39872 2.46269 2.4401e-07 6.17271 2.4401e-07C 9.72282 2.4401e-07 12.0896 2.4307 12.0896 5.91684C 12.0896 10.1706 9.08316 12.0896 5.98081 12.0896ZM 6.07676 9.53092C 7.48401 9.53092 8.37953 8.12367 8.37953 6.04478C 8.37953 4.3177 7.70789 2.55864 6.07676 2.55864C 4.34968 2.55864 3.71002 4.3177 3.71002 6.04478C 3.71002 8.02772 4.50959 9.53092 6.07676 9.53092Z"/>
<path id="path6_fill" d="M 0.0959527 4.06183C 0.0959527 2.36674 0.0639639 1.24733 -1.95208e-06 0.255863L 3.10235 0.255863L 3.23028 2.39872L 3.32622 2.39872C 3.90191 0.703624 5.34115 -2.4401e-07 6.46056 -2.4401e-07C 6.78039 -2.4401e-07 6.97228 4.88498e-07 7.22814 0.0319834L 7.22814 3.42217C 6.9403 3.39019 6.65245 3.32623 6.23667 3.32623C 4.92537 3.32623 3.99787 4.02985 3.77399 5.14925C 3.74201 5.37314 3.71002 5.66098 3.71002 5.94883L 3.71002 11.8337L 0.127928 11.8337L 0.0959527 4.06183Z"/>
<path id="path7_fill" d="M 0.671646 8.66738C 1.34329 9.08315 2.71855 9.53092 3.77399 9.53092C 4.86141 9.53092 5.30917 9.14712 5.30917 8.57143C 5.30917 7.96375 4.95735 7.67591 3.61407 7.26013C 1.21535 6.46055 0.319831 5.14925 0.319831 3.77399C 0.319831 1.63113 2.14285 -2.4401e-07 5.02132 -2.4401e-07C 6.3646 -2.4401e-07 7.57996 0.31983 8.28358 0.671642L 7.64392 3.16631C 7.1322 2.87846 6.14073 2.49467 5.14926 2.49467C 4.28572 2.49467 3.77399 2.84648 3.77399 3.45416C 3.77399 3.99787 4.22175 4.3177 5.629 4.76546C 7.83582 5.53305 8.76333 6.62047 8.76333 8.34755C 8.76333 10.4904 7.06823 12.1215 3.742 12.1215C 2.2388 12.1215 0.863541 11.7697 1.95208e-06 11.29L 0.671646 8.66738Z"/>
<path id="path8_fill" d="M 11.5458 0L 0 0L 0 34.6375L 11.5458 34.6375L 11.5458 0Z"/>
<path id="path9_fill" d="M 34.6375 0L 0 0L 0 11.5458L 34.6375 11.5458L 34.6375 0Z"/>
</defs>
</svg>
